<?xml version="1.0" encoding="UTF-8" standalone="no" ?>
<!DOCTYPE svg PUBLIC "-//W3C//DTD SVG 1.1//EN" "http://www.w3.org/Graphics/SVG/1.1/DTD/svg11.dtd">
<svg xmlns="http://www.w3.org/2000/svg" xmlns:xlink="http://www.w3.org/1999/xlink" version="1.1" width="500" height="500" viewBox="0 0 500 500" xml:space="preserve">
<desc>Created with Fabric.js 3.6.3</desc>
<defs>
</defs>
<g transform="matrix(1,0,0,1,291.58836064778177,250)" style=""  ><path fill="#000000" opacity="1" d="M-165.50-12.99L-167.80-12.99L-168.07-11.72L-168.17-11.72C-169.17-12.82-170.67-13.15-172.11-13.15C-176.05-13.15-178.49-10.92-178.49-6.94C-178.49-5.54-178.49 3.24-178.49 4.65C-178.49 8.89-175.62 10.86-171.88 10.86C-168.13 10.86-165.30 9.06-165.30 4.91L-165.30 3.65L-168.77 3.65L-168.77 4.88C-168.77 7.25-169.47 8.66-171.91 8.66C-173.91 8.66-175.02 7.42-175.02 4.65C-175.02 3.24-175.02-5.54-175.02-6.94C-175.02-9.88-173.58-10.95-172.01-10.95C-169.60-10.92-168.97-9.18-168.97-7.08L-168.97-6.44L-165.50-6.44Z"/><path fill="#000000" opacity="1" d="M-155.44-10.85C-153.14-10.85-152.37-9.61-152.37-7.48L-152.37-4.44C-152.37-2.30-153.24-1.06-155.48-1.06L-157.61-1.06C-157.61-4.70-157.61-7.21-157.61-10.85ZM-152.70 7.42C-152.04 9.19-151.84 10.69-149.73 10.69C-149.00 10.69-147.96 10.59-147.29 10.26L-147.29 8.96C-148.36 9.19-148.96 7.89-149.30 6.99L-150.87 2.68C-151.23 1.64-151.67 1.01-152.67 0.47C-150.50 0.04-148.90-1.57-148.90-4.44L-148.90-7.48C-148.90-11.55-151.84-12.92-155.44-12.92L-162.22-12.92L-162.22-11.95L-160.99-11.08C-160.99-4.60-160.99 2.04-160.99 8.52L-162.46 9.52L-162.46 10.49C-160.52 10.49-158.05 10.49-156.11 10.49L-156.11 9.52L-157.58 8.52C-157.58 6.38-157.58 2.98-157.58 0.87C-155.61 0.87-155.01 1.34-154.34 3.14Z"/><path fill="#000000" opacity="1" d="M-141.38 8.35L-142.85 9.39L-142.85 10.49C-140.95 10.49-138.34 10.49-136.40 10.49L-136.40 9.39L-137.87 8.35L-137.87-0.23L-133.57-11.32L-132.33-11.95L-132.33-12.89L-137.14-12.89L-137.14-11.95L-135.87-11.32L-139.08-3.24L-142.28-11.52C-142.68-12.55-142.95-12.89-144.15-12.89L-147.16-12.89L-147.16-11.92L-146.22-11.59L-141.38 0.21Z"/><path fill="#000000" opacity="1" d="M-126.92 5.75L-126.92 3.88L-130.69 3.88L-130.69 5.72C-130.69 9.29-127.92 10.86-124.71 10.86C-121.54 10.86-118.47 9.46-118.47 5.75L-118.47 2.88C-118.47-3.30-126.99-1.50-126.99-5.54L-126.99-8.38C-126.99-9.98-126.18-10.95-124.61-10.95C-123.04-10.95-122.14-10.05-122.14-8.38L-122.14-6.68L-118.70-6.68C-118.70-8.78-118.70-10.88-118.70-12.95L-120.97-12.95L-121.24-11.69L-121.37-11.69C-122.48-12.92-123.85-13.19-125.18-13.19C-127.89-13.19-130.46-11.89-130.46-8.38L-130.46-5.54C-130.46 0.31-122.01-1.46-122.01 2.91L-122.01 5.75C-122.01 7.42-122.78 8.59-124.55 8.59C-126.05 8.59-126.92 7.75-126.92 5.75Z"/><path fill="#000000" opacity="1" d="M-104.91-10.82L-103.77-6.98L-102.17-6.98L-102.30-12.92L-115.90-12.92L-116.03-6.98L-114.43-6.98L-113.36-10.82L-110.85-10.82C-110.85-4.44-110.85 1.94-110.85 8.32L-112.32 9.36L-112.32 10.49C-110.42 10.49-107.81 10.49-105.88 10.49L-105.88 9.36L-107.35 8.32C-107.35 1.94-107.35-4.44-107.35-10.82Z"/><path fill="#000000" opacity="1" d="M-94.96-8.98L-94.92-8.98L-92.32 2.28L-97.56 2.28ZM-97.99 4.18L-91.85 4.18L-90.75 8.89L-91.95 9.62L-91.95 10.49L-86.00 10.49L-86.00 9.46L-87.21 8.72L-92.58-13.05L-96.02-13.05C-97.73-6.17-99.60 1.91-101.27 8.82L-102.47 9.46L-102.47 10.49L-97.89 10.49L-97.89 9.46L-99.10 8.86Z"/><path fill="#000000" opacity="1" d="M-72.24 10.49L-72.24 5.25L-73.71 5.25L-74.85 8.45C-76.75 8.45-78.29 8.45-80.19 8.45L-80.19 8.29C-79.62 8.09-79.49 7.79-79.49 7.25C-79.49 1.14-79.49-4.97-79.49-11.08L-78.22-11.95L-78.22-12.92L-84.23-12.92L-84.23-11.95L-82.96-11.08C-82.96-4.54-82.96 1.98-82.96 8.52L-84.47 9.52L-84.47 10.49C-80.29 10.49-76.45 10.49-72.24 10.49Z"/><path fill="#000000" opacity="1" d=""/><path fill="#000000" opacity="1" d="M-60.29 5.75L-60.29 3.88L-64.06 3.88L-64.06 5.72C-64.06 9.29-61.29 10.86-58.08 10.86C-54.91 10.86-51.84 9.46-51.84 5.75L-51.84 2.88C-51.84-3.30-60.35-1.50-60.35-5.54L-60.35-8.38C-60.35-9.98-59.55-10.95-57.98-10.95C-56.41-10.95-55.51-10.05-55.51-8.38L-55.51-6.68L-52.07-6.68C-52.07-8.78-52.07-10.88-52.07-12.95L-54.34-12.95L-54.61-11.69L-54.74-11.69C-55.84-12.92-57.21-13.19-58.55-13.19C-61.25-13.19-63.83-11.89-63.83-8.38L-63.83-5.54C-63.83 0.31-55.38-1.46-55.38 2.91L-55.38 5.75C-55.38 7.42-56.14 8.59-57.91 8.59C-59.42 8.59-60.29 7.75-60.29 5.75Z"/><path fill="#000000" opacity="1" d="M-44.35 8.35L-45.82 9.39L-45.82 10.49C-43.92 10.49-41.32 10.49-39.38 10.49L-39.38 9.39L-40.85 8.35L-40.85-0.23L-36.54-11.32L-35.30-11.95L-35.30-12.89L-40.11-12.89L-40.11-11.95L-38.84-11.32L-42.05-3.24L-45.26-11.52C-45.66-12.55-45.92-12.89-47.13-12.89L-50.13-12.89L-50.13-11.92L-49.20-11.59L-44.35 0.21Z"/><path fill="#000000" opacity="1" d="M-29.89 5.75L-29.89 3.88L-33.67 3.88L-33.67 5.72C-33.67 9.29-30.89 10.86-27.69 10.86C-24.51 10.86-21.44 9.46-21.44 5.75L-21.44 2.88C-21.44-3.30-29.96-1.50-29.96-5.54L-29.96-8.38C-29.96-9.98-29.16-10.95-27.59-10.95C-26.02-10.95-25.12-10.05-25.12-8.38L-25.12-6.68L-21.68-6.68C-21.68-8.78-21.68-10.88-21.68-12.95L-23.95-12.95L-24.21-11.69L-24.35-11.69C-25.45-12.92-26.82-13.19-28.16-13.19C-30.86-13.19-33.43-11.89-33.43-8.38L-33.43-5.54C-33.43 0.31-24.98-1.46-24.98 2.91L-24.98 5.75C-24.98 7.42-25.75 8.59-27.52 8.59C-29.02 8.59-29.89 7.75-29.89 5.75Z"/><path fill="#000000" opacity="1" d="M-7.88-10.82L-6.75-6.98L-5.14-6.98L-5.28-12.92L-18.87-12.92L-19.00-6.98L-17.40-6.98L-16.33-10.82L-13.83-10.82C-13.83-4.44-13.83 1.94-13.83 8.32L-15.30 9.36L-15.30 10.49C-13.39 10.49-10.79 10.49-8.85 10.49L-8.85 9.36L-10.32 8.32C-10.32 1.94-10.32-4.44-10.32-10.82Z"/><path fill="#000000" opacity="1" d="M9.62 10.49L9.62 5.25L8.15 5.25L7.01 8.45C5.11 8.45 3.24 8.45 1.34 8.45L1.34 8.29C1.90 8.09 2.04 7.79 2.04 7.25C2.04 4.78 2.04 2.34 2.04-0.13L5.24-0.13L6.11 1.64L7.11 1.64C7.11 0.00 7.11-2.37 7.11-4.00L6.11-4.00L5.24-2.17L2.04-2.17C2.04-5.11 2.04-8.04 2.04-10.95L6.58-10.95L7.52-7.68L9.19-7.68L9.19-12.92C5.11-12.92 1.37-12.92-2.70-12.92L-2.70-12.05L-1.44-11.18C-1.44-4.64-1.44 1.94-1.44 8.52L-2.94 9.52L-2.94 10.49C1.27 10.49 5.44 10.49 9.62 10.49Z"/><path fill="#000000" opacity="1" d="M16.23 8.59C16.23 3.71 16.23-1.13 16.23-6.01L16.07-10.32L16.23-10.32C17.47-3.70 18.54 2.58 19.64 9.22C19.74 9.86 20.07 10.16 20.78 10.16L23.55 10.16L27.22-10.55L27.36-10.55L27.26-7.21C27.26-1.97 27.26 3.28 27.26 8.52L25.79 9.52L25.79 10.49C27.69 10.49 30.26 10.49 32.16 10.49L32.16 9.52L30.70 8.52C30.70 1.98 30.70-4.54 30.70-11.08L32.00-11.95L32.00-12.92C30.09-12.92 29.06-12.89 27.15-12.89C25.89-12.92 25.45-12.69 25.18-11.45L22.21 6.18L22.14 6.18C21.38-0.36 20.64-4.77 19.41-11.35C19.11-12.62 18.67-12.92 17.44-12.92C15.67-12.92 14.30-12.92 12.53-12.92L12.53-11.95L13.86-11.08C13.86-4.54 13.86 2.04 13.86 8.59L12.46 9.46L12.46 10.49C14.10 10.49 16.00 10.49 17.64 10.49L17.64 9.46L16.23 8.59Z"/><path fill="#000000" opacity="1" d=""/><path fill="#000000" opacity="1" d="M55.41-12.99L53.11-12.99L52.84-11.72L52.74-11.72C51.74-12.82 50.23-13.15 48.80-13.15C44.86-13.15 42.42-10.92 42.42-6.94C42.42-5.54 42.42 3.24 42.42 4.65C42.42 8.89 45.29 10.86 49.03 10.86C52.77 10.86 55.61 9.06 55.61 4.91L55.61 3.65L52.14 3.65L52.14 4.88C52.14 7.25 51.44 8.66 49.00 8.66C46.99 8.66 45.89 7.42 45.89 4.65C45.89 3.24 45.89-5.54 45.89-6.94C45.89-9.88 47.33-10.95 48.90-10.95C51.30-10.92 51.94-9.18 51.94-7.08L51.94-6.44L55.41-6.44Z"/><path fill="#000000" opacity="1" d="M70.68 10.49L70.68 5.25L69.21 5.25L68.07 8.45C66.17 8.45 64.63 8.45 62.73 8.45L62.73 8.29C63.29 8.09 63.43 7.79 63.43 7.25C63.43 1.14 63.43-4.97 63.43-11.08L64.70-11.95L64.70-12.92L58.68-12.92L58.68-11.95L59.95-11.08C59.95-4.54 59.95 1.98 59.95 8.52L58.45 9.52L58.45 10.49C62.63 10.49 66.47 10.49 70.68 10.49Z"/><path fill="#000000" opacity="1" d="M85.34 10.49L85.34 5.25L83.87 5.25L82.73 8.45C80.83 8.45 78.96 8.45 77.05 8.45L77.05 8.29C77.62 8.09 77.76 7.79 77.76 7.25C77.76 4.78 77.76 2.34 77.76-0.13L80.96-0.13L81.83 1.64L82.83 1.64C82.83 0.00 82.83-2.37 82.83-4.00L81.83-4.00L80.96-2.17L77.76-2.17C77.76-5.11 77.76-8.04 77.76-10.95L82.30-10.95L83.23-7.68L84.90-7.68L84.90-12.92C80.83-12.92 77.09-12.92 73.01-12.92L73.01-12.05L74.28-11.18C74.28-4.64 74.28 1.94 74.28 8.52L72.78 9.52L72.78 10.49C76.99 10.49 81.16 10.49 85.34 10.49Z"/><path fill="#000000" opacity="1" d="M94.36-8.98L94.39-8.98L96.99 2.28L91.75 2.28ZM91.32 4.18L97.46 4.18L98.56 8.89L97.36 9.62L97.36 10.49L103.31 10.49L103.31 9.46L102.10 8.72L96.73-13.05L93.29-13.05C91.58-6.17 89.71 1.91 88.04 8.82L86.84 9.46L86.84 10.49L91.42 10.49L91.42 9.46L90.21 8.86Z"/><path fill="#000000" opacity="1" d="M108.72 8.59C108.72 3.75 108.72-1.13 108.72-5.97L108.32-9.31L108.42-9.35L113.86 9.36C114.06 10.02 114.50 10.49 115.30 10.49L118.17 10.49C118.17 3.31 118.17-3.84 118.17-11.02L119.44-11.89L119.44-12.92C117.80-12.92 116.17-12.92 114.53-12.92L114.53-11.89L115.80-11.02L115.80-0.20C115.80 1.51 115.93 3.75 115.93 5.45L115.87 5.45L114.36-1.10L111.09-11.52C110.72-12.79 110.45-12.92 108.98-12.92C107.42-12.92 106.65-12.92 105.04-12.92L105.04-11.95L106.31-11.08C106.31-4.54 106.31 2.04 106.31 8.59L104.91 9.46L104.91 10.49C106.55 10.49 108.48 10.49 110.12 10.49L110.12 9.46L108.72 8.59Z"/><path fill="#000000" opacity="1" d="M127.19-11.08L128.46-11.95L128.46-12.92L122.55-12.92L122.55-11.95L123.81-11.08C123.81-4.54 123.81 1.98 123.81 8.52L122.31 9.52L122.31 10.49C124.25 10.49 126.75 10.49 128.66 10.49L128.66 9.52L127.19 8.52C127.19 1.98 127.19-4.54 127.19-11.08Z"/><path fill="#000000" opacity="1" d="M135.40 8.59C135.40 3.75 135.40-1.13 135.40-5.97L135.00-9.31L135.10-9.35L140.55 9.36C140.75 10.02 141.18 10.49 141.98 10.49L144.86 10.49C144.86 3.31 144.86-3.84 144.86-11.02L146.13-11.89L146.13-12.92C144.49-12.92 142.85-12.92 141.22-12.92L141.22-11.89L142.49-11.02L142.49-0.20C142.49 1.51 142.62 3.75 142.62 5.45L142.55 5.45L141.05-1.10L137.78-11.52C137.41-12.79 137.14-12.92 135.67-12.92C134.10-12.92 133.33-12.92 131.73-12.92L131.73-11.95L133.00-11.08C133.00-4.54 133.00 2.04 133.00 8.59L131.60 9.46L131.60 10.49C133.23 10.49 135.17 10.49 136.81 10.49L136.81 9.46L135.40 8.59Z"/><path fill="#000000" opacity="1" d="M153.17-6.91C153.17-9.85 154.54-10.92 156.21-10.92C157.85-10.92 159.39-10.18 159.39-8.21L159.39-6.44L162.86-6.44L162.86-12.95L160.55-12.95L160.29-11.72L160.19-11.72C159.19-12.82 157.62-13.12 156.18-13.12C153.04-13.12 149.67-11.25 149.67-6.91C149.67-3.10 149.67 0.74 149.67 4.55C149.67 8.72 152.47 10.76 156.41 10.76C157.95 10.76 159.59 10.16 160.42 8.79L160.79 10.49L162.96 10.49C162.96 7.09 162.96 3.68 162.96 0.27L157.48 0.27L157.48 1.27L159.45 2.41L159.45 4.95C159.45 7.02 158.65 8.56 156.35 8.56C154.34 8.56 153.17 7.32 153.17 4.55C153.17 0.74 153.17-3.10 153.17-6.91Z"/></g>
<g transform="matrix(4.067809061005593 0 0 3.732469962786495 283.9873938438815 281.4093760173448)"  >
<path style="stroke: none; stroke-width: 0; stroke-dasharray: none; stroke-linecap: butt; stroke-dashoffset: 0; stroke-linejoin: miter; stroke-miterlimit: 4; fill: rgb(0,0,0); fill-rule: nonzero; opacity: 1;"  transform=" translate(-49.95, -50)" d="M 91.7 49 H 8.3 c -0.6 0 -1 0.4 -1 1 s 0.4 1 1 1 h 83.3 c 0.6 0 1 -0.4 1 -1 S 92.2 49 91.7 49 z" stroke-linecap="round" />
</g>
<g transform="matrix(0.180768 0 0 0.180768 59.11097901649298 244.03999999999996)"  >
<g style=""   >
		<g transform="matrix(1 0 0 1 -0.05000000000001137 53.69999999999999)"  >
<path style="stroke: none; stroke-width: 1; stroke-dasharray: none; stroke-linecap: butt; stroke-dashoffset: 0; stroke-linejoin: miter; stroke-miterlimit: 4; fill: rgb(0,0,0); fill-rule: nonzero; opacity: 1;"  transform=" translate(-249.95, -303.7)" d="M 390.1 112.5 h -6.8 H 250 H 116.7 h -6.8 l -3.7 5.7 l 0 0 l -66.7 102 l 0 0 l -5 7.6 L 250 494.9 l 215.4 -267.1 L 390.1 112.5 z M 79.9 204.2 l 36.8 -56.4 l 3 4.6 l 40.6 62.1 H 73.1 L 79.9 204.2 z M 250 147.9 l 30.5 46.7 l 13.1 20.1 h -87.1 l 13.1 -20.1 L 250 147.9 z M 380.3 152.4 l 3 -4.6 l 43.6 66.7 h -87.1 L 380.3 152.4 z M 300.4 239.6 L 250 426.9 l -50.4 -187.3 L 300.4 239.6 L 300.4 239.6 z M 173.8 239.6 l 48.8 181.5 L 76.1 239.6 H 173.8 z M 326.2 239.6 h 97.6 L 277.4 421.1 L 326.2 239.6 z M 319.7 199.6 l -3 4.6 l -30.5 -46.7 l -13.1 -20.1 h 87.1 L 319.7 199.6 z M 226.9 137.5 l -13.1 20.1 l -30.5 46.7 l -3 -4.6 l -40.6 -62.1 h 87.2 V 137.5 z" stroke-linecap="round" />
</g>
		<g transform="matrix(1 0 0 1 -187.5 -187.5)"  >
<path style="stroke: none; stroke-width: 1; stroke-dasharray: none; stroke-linecap: butt; stroke-dashoffset: 0; stroke-linejoin: miter; stroke-miterlimit: 4; fill: rgb(0,0,0); fill-rule: nonzero; opacity: 1;"  transform=" translate(-62.5, -62.5)" d="M 50 125 h 25 c 0 -27.6 22.4 -50 50 -50 V 50 C 97.4 50 75 27.6 75 0 H 50 c 0 27.6 -22.4 50 -50 50 v 25 C 27.6 75 50 97.4 50 125 z M 62.5 41.4 c 5.6 8.4 12.7 15.5 21.1 21.1 c -8.4 5.6 -15.5 12.7 -21.1 21.1 c -5.6 -8.4 -12.7 -15.5 -21.1 -21.1 C 49.8 56.9 56.9 49.8 62.5 41.4 z" stroke-linecap="round" />
</g>
</g>
</g>
</svg>