<?xml version="1.0" encoding="utf-8"?>
<!-- Generator: Adobe Illustrator 23.0.1, SVG Export Plug-In . SVG Version: 6.00 Build 0)  -->
<svg version="1.1" id="Layer_1" xmlns="http://www.w3.org/2000/svg" xmlns:xlink="http://www.w3.org/1999/xlink" x="0px" y="0px"
	 viewBox="0 0 612 792" style="enable-background:new 0 0 612 792;" xml:space="preserve">
<style type="text/css">
	.st0{fill:#FE006E;}
	.st1{fill:#FEFEFE;}
	.st2{fill:#FE016E;}
	.st3{fill:#FEFDFD;}
</style>
<g>
	<path class="st0" d="M208.02,346.48c1.08,11.25,2.48,22.45,4.93,33.49c12.31,55.39,38.33,101.23,90.05,129.14
		c2.61,0.36,4.85-0.63,7.11-1.8c26.02-13.46,45.87-33.42,60.74-58.39c23.87-40.08,31.8-84.18,32.21-130.12
		c0.03-3.81-1.9-4.36-4.97-4.39c-16.6-0.2-32.79-2.92-48.45-8.45c-15.38-5.43-30.08-12.23-42.63-22.97c-1.27-0.71-2.62-0.54-4,0
		c-6.51,3.33-12.2,8-18.7,11.37c-22.17,11.5-45.54,18.29-70.67,18.29c-2.8,0-5.33,0.43-6.64,3.34c0,5,0,10,0,15L208.02,346.48z"/>
	<path class="st1" d="M213.47,331.27c0-2.17-1.38-6.99,0.44-9.46c1.45-1.98,6.8-1.13,10.42-1.46c28.59-2.57,54.89-11.51,78.33-28.3
		c1.89-1.35,3.09-1.05,4.81,0.16c25.6,18.05,54.22,27.14,85.37,28.65c2.19,0.11,3.73,0.25,3.66,3.22
		c-1.15,48.88-11.12,95.11-40.87,135.31c-11.92,16.1-26.44,29.38-43.74,39.67c-4.76,2.83-8.5,2.71-13.13,0
		c-25.59-15.01-44.49-36.3-58.5-62.11c-14.83-27.31-22.39-56.8-25.3-87.59C214.44,343.89,214.05,338.41,213.47,331.27z"/>
	<path class="st0" d="M352.16,387.88c-0.42,6.76,0.9,14.97-0.79,23.04c-5.14,24.65-25.92,40.1-50.96,38.01
		c-23.02-1.92-41.19-21.59-41.9-45.82c-0.36-12.16,0.02-24.33-0.11-36.5c-0.04-4.07,1.51-5.95,5.63-5.46c0.33,0.04,0.67-0.04,1,0.01
		c7.24,1.03,11.86-0.05,14.58-8.78c3.59-11.5,15.99-17.39,28.62-16.39c11.29,0.9,21.62,9.08,24.55,20.38
		c1.09,4.21,2.96,4.89,6.79,4.87c14.55-0.06,12.43-2.02,12.59,12.75C352.2,378.17,352.16,382.33,352.16,387.88z"/>
	<path class="st1" d="M265,387.92c0-5.66,0.09-11.32-0.05-16.98c-0.06-2.36,0.67-3.15,3.09-3.14c24.8,0.07,49.61,0.06,74.41,0.02
		c2.07,0,3.51,0.2,3.41,2.89c-0.44,12.63,0.99,25.32-0.78,37.89c-2.75,19.56-21.57,35.24-40.61,34.19
		c-21.87-1.21-39.08-18.35-39.47-39.39C264.92,398.24,265,393.08,265,387.92z"/>
	<path class="st1" d="M305.09,361.16c-6.14,0-12.28-0.1-18.41,0.05c-2.72,0.07-3.48-0.61-2.7-3.38
		c2.41-8.59,12.05-15.72,21.48-15.65c9.25,0.07,19.14,7.59,21.32,16.02c0.73,2.8-0.61,3.01-2.78,2.98
		C317.7,361.11,311.39,361.16,305.09,361.16z"/>
	<path class="st2" d="M291,393.81c-0.02-6.96,4.44-12.53,11.17-13.95c7.04-1.48,13.97,2.21,16.58,8.83
		c2.46,6.24,0.46,13.95-5.57,16.89c-4.43,2.16-4.99,5.02-4.64,9.05c0.16,1.82,0.05,3.66,0.01,5.49c-0.05,2.19-0.6,4.06-3.33,3.96
		c-2.74-0.1-3.05-2.08-3.05-4.22c0-2.66-0.14-5.33,0.04-7.98c0.17-2.6-0.47-4.1-3.13-5.33C293.74,404.08,291.01,399.26,291,393.81z"
		/>
	<path class="st3" d="M305.35,386.57c4.32,0,7.68,3.21,7.79,7.44c0.12,4.28-3.51,8.05-7.79,8.1c-4.26,0.05-7.9-3.73-7.77-8.07
		C297.72,389.77,301.04,386.57,305.35,386.57z"/>
</g>
</svg>
