<?xml version="1.0" encoding="utf-8"?>
<!-- Generator: Adobe Illustrator 23.0.1, SVG Export Plug-In . SVG Version: 6.00 Build 0)  -->
<svg version="1.1" id="Layer_1" xmlns="http://www.w3.org/2000/svg" xmlns:xlink="http://www.w3.org/1999/xlink" x="0px" y="0px"
	 viewBox="0 0 612 792" style="enable-background:new 0 0 612 792;" xml:space="preserve">
<style type="text/css">
	.st0{fill:#FEBD0B;}
	.st1{fill:#FEC21D;}
	.st2{fill:#FEC016;}
	.st3{fill:#FEC118;}
	.st4{fill:#FEBF13;}
	.st5{fill:#FEC117;}
	.st6{fill:#FEFEFE;}
	.st7{fill:#FEFDFC;}
	.st8{fill:#FEFCF6;}
	.st9{fill:#FEBD0C;}
</style>
<g>
	<path class="st0" d="M279,300c1.86,4.32,0.68,8.87,0.99,13.3c0.12,1.7,5.82,8.89,7.38,8.91c0.67,0.01,1.41-0.68,2.01-1.19
		c3.63-3.08,7.88-4.05,12.53-4.04c19.32,0.04,38.65,0.12,57.97-0.06c4.61-0.04,6.32,1.57,6.03,6.13c-0.28,4.48-0.22,9-0.01,13.49
		c0.18,3.87-1.36,5.43-5.24,5.36c-4.82-0.08-9.65-0.32-14.46,0.41c-3.78,0.57-5.36,2.07-4.24,6.2c3.09,11.45,6.84,22.37,18.14,28.57
		c1.67,0.91,2.45,2.3,1.4,4.15c-1,1.75-2.35,1.95-4.23,1.11c-6.19-2.78-10.55-7.48-13.99-13.11c-3.59-5.88-6-12.29-7.13-19.05
		c-0.61-3.61-1.7-3.24-3.96-1.41c-5.83,4.71-9.82,10.16-9.4,18.24c0.58,11.12-0.63,22.3,0.95,33.41
		c1.31,9.25,5.18,17.43,11.92,23.64c12.11,11.15,17.51,24.73,17.21,40.94c-0.13,7.33-0.02,14.66-0.01,21.99
		c0.01,2.26-0.14,4.4-2.79,5.22c-7.6,0.67-15.21,0.25-22.82,0.28c-18.55,0.07-37.1,0.03-55.65,0.02c-3.66-0.31-3.79-3.1-4.05-5.79
		c-0.59-6.1-0.58-6.14-6.89-6.16c-13.76-0.04-27.52-0.02-41.29-0.01c-6.13,0-10.59-2.27-12.37-8.52c0-26.67,0-53.33,0-80
		c1.09-12.31,4.27-24.04,9.12-35.41c5.14-12.05,11.95-23,20.73-32.65c4.04-4.44,6.53-8.98,5.91-15.15
		c-0.31-3.05-0.63-6.41,2.24-8.79C256.33,300,267.67,300,279,300z"/>
	<path class="st1" d="M378.06,334.21c-0.43,1.81-1.56,2.79-3.5,2.81c-2.32,0.02-3.37-1.35-3.36-3.43c0.01-2.02,1.52-3.1,3.31-2.97
		C376.44,330.76,377.87,331.97,378.06,334.21z"/>
	<path class="st2" d="M390.02,320.74c-0.15,2.05-1.23,3.25-3.42,3.24c-2.01-0.01-3.08-1.32-3.15-3.09
		c-0.09-2.16,1.43-3.34,3.44-3.35C388.74,317.53,389.87,318.71,390.02,320.74z"/>
	<path class="st3" d="M399.35,333c1.96,0.48,3.61,1.33,3.7,3.44c0.09,2.24-1.67,3.22-3.55,3.27c-1.74,0.04-3.15-1.07-3.28-3
		C396.08,334.53,397.52,333.54,399.35,333z"/>
	<path class="st3" d="M402.47,318.68c-0.26,1.94-1.18,3.27-3.15,3.27c-2.1,0-3.44-1.16-3.43-3.36c0.01-1.95,1.31-3.14,3.09-3.23
		C401.11,315.26,402.19,316.72,402.47,318.68z"/>
	<path class="st4" d="M374.29,326.54c-1.93-0.09-3.23-1-3.21-3.01c0.02-2.14,1.33-3.42,3.44-3.46c1.95-0.04,3.1,1.29,3.23,3.12
		C377.92,325.49,376.34,326.34,374.29,326.54z"/>
	<path class="st5" d="M386.85,331.91c2,0.29,3.22,1.43,3.12,3.61c-0.1,2.15-1.56,2.68-3.42,2.64c-2.09-0.04-3.02-1.35-3.01-3.17
		C383.56,333.07,384.83,332.06,386.85,331.91z"/>
	<path class="st6" d="M213.09,412.88c-0.59-21.09,3.68-41.01,13.16-59.78c5.21-10.32,11.94-19.58,19.63-28.17
		c1.76-1.96,3.59-3.08,6.42-3c6.99,0.22,13.99,0.09,20.98,0.06c1.7-0.01,3.31,0.11,4.74,1.14c5.05,3.65,5.28,4.23,1.02,8.07
		c-2.46,2.21-5.07,4.41-5.87,7.89c-1.02,4.44,1.25,9.2,6.05,11.38c6.61,3.01,9.09,8.03,9.28,15.08c0.22,8.12-0.64,15.57-5.23,22.74
		c-4.48,7-6.54,15.23-8.84,23.23c-1.48,5.15-3.68,5.87-7.67,2.49c-4.3-3.65-8.83-3.65-13.35-0.83c-2.77,1.73-5.05,1.85-7.76-0.04
		c-4.18-2.92-8.48-2.58-12.5,0.44c-1.91,1.44-3.75,1.87-6.01,0.88C220.05,411.32,220.03,411.36,213.09,412.88z"/>
	<path class="st6" d="M311.19,486c-10.65,0-21.3-0.13-31.95,0.08c-3.32,0.06-4.23-0.97-4.16-4.21c0.27-13.3-0.39-26.61,0.91-39.88
		c0.19-1.92-0.45-4.24,1.72-5.39c2.31-1.23,3.59,0.83,5.14,2c4.21,3.17,8.62,3.43,12.87,0.19c2.81-2.14,5.1-2.46,8.07-0.43
		c3.63,2.47,7.57,2.43,11.22-0.07c2.34-1.61,4.31-1.93,6.75-0.07c4,3.06,8.3,3.19,12.44,0.18c3.26-2.37,5.43-1.3,7.33,1.81
		c3.86,6.33,4.94,13.38,5.26,20.55c0.32,7.14,0.01,14.31,0.29,21.46c0.12,3.15-0.9,3.92-3.93,3.87
		C332.49,485.89,321.84,486,311.19,486z"/>
	<path class="st6" d="M242.84,473.4c-7.15,0-14.31,0.08-21.46-0.02c-6.39-0.09-8.36-2.12-8.37-8.42
		c-0.03-13.14-0.04-26.28,0.01-39.42c0.02-6.05,4.83-8.88,10-5.82c4.15,2.46,8.25,2.58,12.19-0.05c2.97-1.98,5.52-2.33,8.66-0.22
		c3.76,2.53,7.97,2.42,11.77-0.01c2.91-1.86,5.41-2.24,8.1,0.21c0.71,0.65,1.71,1.37,2.59,1.4c5.87,0.23,5.67,3.36,4.83,8.05
		c-2.32,12.97-2.52,26.13-2.06,39.27c0.15,4.31-1.25,5.33-5.3,5.13C256.82,473.17,249.83,473.4,242.84,473.4z"/>
	<path class="st6" d="M316.64,390.61c-0.57,13.72,3.78,26.55,13.8,37.42c0.93,1.01,3.63,2.04,1.97,3.72
		c-1.72,1.74-4.35,3.95-7.08,1.88c-4.9-3.72-9.57-4.14-14.54-0.33c-1.49,1.14-3.2,0.92-4.67-0.12c-5.01-3.54-9.81-3.62-14.47,0.64
		c-1.4,1.27-3.05,1.5-4.55,0.29c-2.47-2-4.87-3.94-8.26-4.28c-1.72-0.17-1.05-1.84-0.88-2.85c2.5-14.51,6.54-28.49,14.05-41.31
		c1.28-2.18,2.92-2.8,5.33-2.72c4.49,0.16,8.99,0.04,13.49,0.05C317.26,383,317.26,383,316.64,390.61z"/>
	<path class="st6" d="M322.77,322.85c7.33,0,14.66,0.11,21.99-0.06c2.85-0.06,4,0.91,3.66,3.72c-0.1,0.82-0.13,1.68,0.01,2.49
		c0.78,4.69-0.77,6.78-5.84,7.98c-11.77,2.78-20.73,9.68-25.23,21.3c-0.87,2.25-2,2.66-4.01,2.58c-2.5-0.09-5-0.14-7.5,0
		c-6.18,0.36-11.87,0.77-13.94-7.48c-1.04-4.13-5.38-6.55-9.34-8.55c-3.62-1.83-4.12-4.51-1.27-7.49c3.92-4.09,8.02-8,12.13-11.89
		c2.16-2.04,4.89-2.65,7.84-2.63C308.44,322.89,315.61,322.85,322.77,322.85z"/>
	<path class="st7" d="M262.35,306c1.83,0,3.66,0,5.5,0c5.71,0,7.67,2.79,5.98,8.23c-0.57,1.84-1.86,1.61-3.14,1.61
		c-5.66,0.03-11.33-0.11-16.99,0.05c-4.75,0.13-3-3.33-3.28-5.61c-0.3-2.48-0.22-4.69,3.44-4.34
		C256.67,306.21,259.52,306,262.35,306z"/>
	<path class="st7" d="M305.64,367c1.66,0,3.36,0.22,4.98-0.04c4.7-0.77,5.92,1.24,5.67,5.69c-0.18,3.13-0.79,4.49-4.19,4.27
		c-4.31-0.28-8.67-0.37-12.96,0.02c-4.31,0.4-4.34-1.9-4.37-5.07c-0.03-3.24,0.15-5.57,4.4-4.93
		C301.27,367.26,303.47,367,305.64,367z"/>
	<path class="st8" d="M359.85,330.02c0,1.31-0.03,2.63,0.01,3.94c0.05,1.87-1.14,2.04-2.6,2.07c-1.58,0.03-2.48-0.45-2.43-2.21
		c0.06-2.13,0-4.27,0-6.4c0-1.79-0.34-3.68,2.56-3.62s2.43,2.01,2.47,3.76c0.02,0.82,0,1.64,0,2.46
		C359.86,330.02,359.86,330.02,359.85,330.02z"/>
	<path class="st9" d="M244.97,369.72c-0.42,10.06-3.26,20.55-8.42,30.43c-0.23,0.44-0.48,0.88-0.75,1.29
		c-2.43,3.66-4.93,7.78-10.12,6.4c-4.96-1.32-5.32-6.12-5.44-10.21c-0.38-13.09,3.07-25.34,9.37-36.74c2.01-3.64,4.7-7.52,9.63-6.33
		c4.97,1.2,5.14,5.97,5.7,10.09C245.13,365.96,244.97,367.32,244.97,369.72z"/>
	<path class="st7" d="M238.26,361.16c1.58,15.16-2.27,28.11-10.03,40.79C223.88,392.86,229.81,368.62,238.26,361.16z"/>
</g>
</svg>
