<?xml version="1.0" encoding="utf-8"?>
<!-- Generator: Adobe Illustrator 23.0.1, SVG Export Plug-In . SVG Version: 6.00 Build 0)  -->
<svg version="1.1" id="Layer_1" xmlns="http://www.w3.org/2000/svg" xmlns:xlink="http://www.w3.org/1999/xlink" x="0px" y="0px"
	 viewBox="0 0 612 792" style="enable-background:new 0 0 612 792;" xml:space="preserve">
<style type="text/css">
	.st0{fill:#FEFEFE;}
	.st1{fill:#8338EB;}
	.st2{fill:#F8F5FD;}
	.st3{fill:#F0E8FC;}
	.st4{fill:#B990F3;}
	.st5{fill:#9D64EF;}
	.st6{fill:#D4BBF7;}
	.st7{fill:#853BEB;}
	.st8{fill:#8A43EC;}
	.st9{fill:#8841EC;}
	.st10{fill:#FDFCFE;}
	.st11{fill:#E5D5FA;}
	.st12{fill:#E4D4FA;}
	.st13{fill:#8339EB;}
</style>
<g>
	<path class="st0" d="M216,397c0-48.72,0.03-97.45-0.06-146.17c-0.01-2.91,0.38-3.95,3.72-3.93c23.11,0.19,46.23,0.1,69.34,0.1
		c1.09,3.15-1.64,3.09-3.27,3.64c-10.86,3.68-19.9,9.84-26.96,18.95c-23.53,30.32-10.67,77.34,30.12,87.42
		c31.33,7.74,61.84-12.4,67.21-44.22c5.06-29.96-12.79-53.84-36.74-61.81c-2.1-0.7-5.36-0.28-5.37-3.98c27,0,54,0.04,81-0.07
		c2.5-0.01,3.06,0.57,3.06,3.07c-0.07,98-0.07,196,0,294c0,2.5-0.56,3.09-3.06,3.07c-15.33-0.13-30.67-0.07-46-0.07
		c-1.05-2.24-0.45-4.6-0.45-6.91c-0.02-25.16,0-50.32-0.03-75.49c-0.01-7.39-0.71-8.12-7.92-8.13c-24.33-0.03-48.66-0.03-72.99,0
		c-7.18,0.01-8.06,0.89-8.13,8.06c-0.07,8,0.08,16-0.06,24c-0.1,5.72-1.13,6.72-6.72,6.89c-3.66,0.11-7.33,0.12-11,0
		c-9.02-0.31-15.59-6.2-15.93-15.31c-0.3-8.15-1.27-16.26-1.31-24.43c-0.08-16.31-1.55-32.58-1.92-48.88
		c-0.05-2.16-0.07-4.34,0.31-6.48c1.17-6.61,6.38-11.44,13.05-11.69c7.49-0.27,15-0.06,22.49-0.08c4.2-0.01,5.85,2,6.08,6.11
		c0.62,11.08,4.77,13.3,14.75,8.05c5.76-3.03,11.29-6.46,16.78-9.92c4.66-2.95,8.72-3.1,13.34,0.11c5.19,3.61,10.84,6.53,16.33,9.68
		c2.03,1.16,4.07,2.32,6.43,2.65c4.6,0.64,7.76-1.82,8.31-6.43c0.12-0.99,0.08-2,0.13-3c0.29-6.23,1.17-7.16,7.47-7.23
		c8.33-0.09,16.67-0.17,24.99,0.02c10.23,0.23,16.32,7.15,15.24,17.37c-2.99,28.31-4.66,56.74-7.63,85.06c-0.21,1.99-0.25,4,0,5.99
		c0.18,1.47,0.26,3.36,2.18,3.42c1.87,0.06,2.37-1.75,2.46-3.22c0.27-4.49,0.92-8.94,1.26-13.43c1.31-17.26,3.02-34.49,4.48-51.74
		c0.73-8.63,1.5-17.25,2.07-25.89c0.25-3.84-0.46-7.7-2.01-11.24c-3.06-6.97-8.23-11.25-16.12-11.39
		c-8.66-0.16-17.33,0.03-25.99-0.08c-6.85-0.09-8.06-1.33-8.41-8.19c-0.49-9.43-5.61-12.16-14.05-7.53
		c-5.99,3.29-11.87,6.77-17.64,10.42c-4.61,2.91-8.74,3.03-13.44,0.02c-5.75-3.68-11.69-7.08-17.64-10.43
		c-8.13-4.58-13.68-1.55-14.29,7.68c-0.46,6.94-1.5,7.96-8.5,8.04c-5.5,0.07-11.03,0.38-16.49-0.07c-8.4-0.69-13.9,3.38-18.35,9.8
		C219.06,394.73,218.57,397.03,216,397z"/>
	<path class="st1" d="M216,397c1.34-2.24,2.46-4.66,4.07-6.69c4.59-5.8,10.38-9.09,18.12-8.72c6.65,0.32,13.33-0.04,19.99,0.11
		c3.03,0.07,4.3-1.02,3.99-4.07c-0.15-1.48-0.07-3-0.01-4.49c0.31-7.89,7.16-11.85,14.08-7.96c7.55,4.24,15.01,8.65,22.38,13.19
		c2.45,1.51,4.34,1.56,6.81,0.03c6.94-4.29,14.1-8.21,21.06-12.47c3.7-2.26,7.29-3.08,11.28-0.95c3.88,2.08,4.15,5.6,4.14,9.43
		c-0.02,7.62-1.22,7.25,7.19,7.26c7.66,0.01,15.34,0.31,22.99-0.06c14.76-0.72,23.57,10.99,22.47,25.59
		c-2.23,29.54-5.04,59.04-7.6,88.56c-0.07,0.83-0.11,1.66-0.2,2.49c-0.27,2.53-1.1,4.79-4.13,4.58c-3.19-0.23-4.01-2.6-3.81-5.39
		c0.44-6.31,0.89-12.62,1.45-18.92c1.91-21.89,3.86-43.78,5.81-65.66c0.27-2.98,0.68-5.96,0.85-8.94
		c0.44-7.57-4.78-13.86-12.31-14.13c-9.65-0.33-19.32-0.04-28.98-0.17c-2.82-0.04-3.18,1.35-3.28,3.69
		c-0.69,14.81-5.78,17.43-18.75,9.75c-5.87-3.48-11.82-6.84-17.6-10.47c-2.45-1.54-4.31-1.48-6.79,0.06
		c-6.93,4.31-14.01,8.38-21.1,12.4c-8.78,4.98-15.16,1.31-15.18-8.62c-0.02-6.77-0.02-6.77-6.64-6.77c-6.33,0-12.66-0.1-18.99,0.03
		c-8.19,0.17-13.55,5.44-13.27,13.65c0.89,25.79,1.95,51.57,3.13,77.34c0.37,8,6.07,13.08,14.09,13.2
		c4.16,0.06,8.34-0.18,12.49,0.07c3.46,0.21,4.64-0.95,4.56-4.49c-0.21-9.32,0.04-18.66-0.12-27.99c-0.08-4.61,1.6-6.57,6.45-6.55
		c26.49,0.15,52.98,0.13,79.47,0.01c4.63-0.02,6.13,1.94,6.12,6.31c-0.09,26.66-0.05,53.31-0.03,79.97c0,2.03-0.24,3.97-1.17,5.8
		c-29.67,0-59.33,0-89,0c-3.36-1.54-3.45-4.56-3.46-7.62c-0.03-9.97,0.04-19.95-0.03-29.92c-0.04-5.48-0.49-5.88-6.02-5.97
		c-2.66-0.05-5.32,0-7.98-0.02c-11.29-0.05-19.51-4.71-23.54-15.68c-2.7-9.08-0.91-18.47-1.81-27.69
		c-0.77-7.88,0.04-15.89-0.64-23.83c0-3.6,0-7.21,0-10.81c0-1.73,0-3.47,0-5.2c0-1.93,0-3.87,0-5.81c-0.24-1.81,0.54-3.72-0.52-5.46
		C216,405,216,401,216,397z"/>
	<path class="st1" d="M314,247c0.77,2.27,3,1.81,4.61,2.31c26.77,8.31,43.39,34.76,39.2,62.53c-4.03,26.76-27.7,47.88-53.92,48.12
		c-29.27,0.27-52.89-19.11-57.59-47.23c-4.54-27.23,12.06-54.4,38.48-63.18c1.47-0.49,4.01,0.23,4.21-2.55
		C297.33,247,305.67,247,314,247z"/>
	<path class="st0" d="M220.15,487.97c4.79,10.28,12.98,14.66,24.14,14.07c3.32-0.18,6.67,0.14,9.99-0.07
		c3.1-0.2,4.02,1.04,3.98,4.04c-0.13,11.49-0.04,22.99-0.07,34.48c-0.01,2.36-0.05,4.69,1.81,6.52c-13.5,0-27-0.11-40.5,0.09
		c-2.99,0.04-3.6-0.6-3.59-3.59c0.14-32.5,0.08-65,0.08-97.5c2.3,0.09,1.49,1.91,1.43,2.97c-0.53,10.66,1.58,21.23,1.05,31.88
		C218.36,483.38,219.21,485.68,220.15,487.97z"/>
	<path class="st2" d="M220.15,487.97c-1.93-1.88-2.21-4.3-2.14-6.79c0.27-10.69-1.73-21.31-1.03-32.02
		c0.08-1.15,0.09-2.33-0.98-3.15c0-3.33,0-6.67,0-10c0.33-0.44,0.67-0.47,1,0c0.64,12.55,1.35,25.1,1.89,37.65
		C219.09,478.45,219.22,483.24,220.15,487.97z"/>
	<path class="st3" d="M217,436c-0.33,0-0.67,0-1,0c0-3.67,0-7.33,0-11c0.31-0.48,0.59-0.43,0.85,0.05
		C216.9,428.7,216.95,432.35,217,436z"/>
	<path class="st4" d="M216.89,414.09c0.01,1.98,0.02,3.97,0.03,5.95c-0.33,0.42-0.63,0.39-0.92-0.04c0-2,0-4,0-6
		C216.35,413.55,216.64,413.55,216.89,414.09z"/>
	<path class="st5" d="M216.89,414.09c-0.3-0.03-0.59-0.06-0.89-0.09c0-1.67,0-3.33,0-5C217.69,410.45,216.8,412.36,216.89,414.09z"
		/>
	<path class="st6" d="M216,420c0.31-0.01,0.61,0.01,0.92,0.04c-0.02,1.67-0.05,3.34-0.07,5.01c-0.28-0.01-0.57-0.03-0.85-0.05
		C216,423.33,216,421.67,216,420z"/>
	<path class="st7" d="M252.94,437.33c-4.49,0-8.97,0-13.46,0c-2.7,0-5.17-0.48-5.3-3.83c-0.13-3.31,2.23-4.26,4.94-4.29
		c8.97-0.08,17.94-0.08,26.91,0c2.69,0.03,5.09,0.95,5.08,4.22c-0.01,3.4-2.53,3.88-5.21,3.9
		C261.58,437.35,257.26,437.34,252.94,437.33z"/>
	<path class="st8" d="M301.97,442.29c-3.62-0.25-5.63-2.41-5.54-5.75c0.09-3.32,2.16-5.5,5.78-5.48c3.72,0.02,5.52,2.38,5.45,5.69
		C307.59,440.08,305.56,442.2,301.97,442.29z"/>
	<path class="st9" d="M301.84,406.68c3.6,0.01,5.71,2.03,5.81,5.45c0.1,3.45-2.02,5.71-5.56,5.71c-3.58,0.01-5.58-2.41-5.61-5.75
		C296.45,408.92,298.39,406.88,301.84,406.68z"/>
	<path class="st0" d="M266.18,501.41c0-11.49,0.08-22.98-0.06-34.46c-0.03-2.96,0.76-4.09,3.91-4.08
		c22.81,0.11,45.62,0.09,68.42,0.02c2.78-0.01,3.79,0.9,3.78,3.73c-0.08,22.97-0.08,45.95,0,68.92c0.01,2.96-0.88,4.15-3.97,4.14
		c-22.81-0.08-45.62-0.09-68.42,0.01c-3.37,0.02-3.73-1.61-3.7-4.33C266.24,524.06,266.18,512.73,266.18,501.41z"/>
	<path class="st10" d="M333.9,385.32c0,1.66,0.14,3.34-0.03,4.98c-0.28,2.71,1.42,6.63-0.92,7.84c-2.23,1.15-4.85-2.1-7.28-3.43
		c-4.52-2.47-8.88-5.23-13.36-7.76c-2.39-1.35-2.97-2.37-0.13-3.96c5.94-3.34,11.8-6.81,17.64-10.33c2.77-1.67,4.25-1.58,4.12,2.19
		C333.8,378.34,333.9,381.83,333.9,385.32z"/>
	<path class="st10" d="M270.1,385.8c0-3.49,0.02-6.99-0.01-10.48c-0.03-2.52,0.81-3.5,3.27-2.06c6.31,3.71,12.61,7.43,18.95,11.09
		c2.22,1.28,1.97,2.28-0.1,3.42c-6.26,3.46-12.5,6.96-18.72,10.47c-2.3,1.3-3.4,0.73-3.38-1.96
		C270.12,392.78,270.1,389.29,270.1,385.8z"/>
	<path class="st0" d="M350.35,303.52c0.11,26.96-21.53,48.99-48.23,49.1c-26.36,0.1-48.85-22.5-48.65-48.9
		c0.2-26.69,21.94-48.66,48.2-48.73C328.59,254.92,350.24,276.51,350.35,303.52z"/>
	<path class="st11" d="M303.92,436.85c-0.27,1.1-0.85,1.92-2.03,1.79c-1.1-0.12-1.81-0.91-1.76-2.04c0.05-1.19,0.9-1.75,2.03-1.68
		C303.3,434.98,303.95,435.65,303.92,436.85z"/>
	<path class="st12" d="M302.01,410.28c1.09,0.14,1.81,0.74,1.89,1.82c0.11,1.43-0.79,2.06-2.1,1.95c-1.07-0.09-1.76-0.79-1.65-1.94
		C300.24,411.03,300.91,410.41,302.01,410.28z"/>
	<path class="st13" d="M327.78,298.18c-12.99,0.2-22.84-4.58-31.2-12.5c-2.61-2.47-3.94-2.85-6.67-0.1
		c-6.51,6.56-14.81,8.38-23.83,7.7c-2.87-0.22-4.49-1.52-4.14-4.36c0.34-2.8,2.39-3.72,5.07-3.5c9.14,0.76,16.05-3.06,21.27-10.37
		c3.58-5.03,5.26-4.97,9.19,0.04c9.72,12.42,22.22,17.44,37.83,13.99c2.82-0.62,5.94-1.46,6.87,2.49c0.96,4.07-1.91,4.94-5.16,5.64
		C333.55,297.98,330.08,298,327.78,298.18z"/>
</g>
</svg>
