<svg id="Capa_1" enable-background="new 0 0 512 512" height="512" viewBox="0 0 512 512" width="512" xmlns="http://www.w3.org/2000/svg"><path d="m417.895 68.058c4.148 0 7.511-3.363 7.511-7.511v-53.036c0-4.148-3.363-7.511-7.511-7.511h-161.895-161.894c-4.148 0-7.511 3.363-7.511 7.511v187.519c0 4.148 3.363 7.511 7.511 7.511s7.511-3.363 7.511-7.511v-180.007h146.872v345.728h-146.872v-135.675c0-4.148-3.363-7.511-7.511-7.511s-7.511 3.363-7.511 7.511v279.413c0 4.148 3.363 7.511 7.511 7.511h323.789c4.148 0 7.511-3.363 7.511-7.511v-413.897c0-4.148-3.363-7.511-7.511-7.511s-7.511 3.363-7.511 7.511v270.158h-146.873v-345.727h146.872v45.524c0 4.148 3.363 7.511 7.512 7.511zm-7.512 360.806h-50.69c-4.148 0-7.511 3.363-7.511 7.511s3.363 7.511 7.511 7.511h50.69v53.09h-308.766v-53.09h228.03c4.148 0 7.511-3.363 7.511-7.511s-3.363-7.511-7.511-7.511h-228.03v-53.091h154.383 154.383z"/><path d="m237.614 402.319c0 4.148 3.363 7.511 7.511 7.511h21.514c4.148 0 7.511-3.363 7.511-7.511s-3.363-7.511-7.511-7.511h-21.514c-4.148-.001-7.511 3.362-7.511 7.511z"/><path d="m230.148 200.089v-24.406c0-4.148-3.363-7.511-7.511-7.511s-7.511 3.363-7.511 7.511v24.406c0 4.148 3.363 7.511 7.511 7.511 4.149.001 7.511-3.362 7.511-7.511z"/><path d="m281.852 175.684v24.406c0 4.148 3.363 7.511 7.511 7.511s7.511-3.363 7.511-7.511v-24.406c0-4.148-3.363-7.511-7.511-7.511s-7.511 3.363-7.511 7.511z"/><path d="m266.64 462.921h-21.514c-4.148 0-7.511 3.363-7.511 7.511s3.363 7.511 7.511 7.511h21.514c4.148 0 7.511-3.363 7.511-7.511s-3.363-7.511-7.511-7.511z"/></svg>