<svg id="Capa_1" enable-background="new 0 0 512 512" height="512" viewBox="0 0 512 512" width="512" xmlns="http://www.w3.org/2000/svg"><g><path d="m436.791 311.604c-18.491-11.006-26.235-31.945-24.526-52.624 0-16.858-11.191-32.023-27.26-37.01v-22.704c10.991 0 19.356-6.655 19.291-17.013v-38.208c0-.868-.086-1.713-.212-2.546h26.364c8.149 0 15.556-4.148 19.814-11.097s4.592-15.432.892-22.693l-23.141-45.422c-1.828-3.589-6.221-5.015-9.806-3.187-3.589 1.828-5.016 6.219-3.187 9.806l23.141 45.422c1.398 2.746 1.277 5.827-.332 8.454-1.61 2.627-4.3 4.134-7.381 4.134h-145.451c-1.842 0-3.341-1.499-3.341-3.341v-28.731c0-13.65-9.305-25.26-22.627-28.236l-6.93-1.547v-50.478h117.185c11.139 0 21.2 6.165 26.257 16.092l5.281 10.364c1.829 3.588 6.22 5.015 9.807 3.186 3.588-1.829 5.015-6.219 3.186-9.807l-5.281-10.363c-7.557-14.838-22.596-24.055-39.249-24.055h-168.542c-8.71 0-15.797 7.086-15.797 15.797v36.559c0 7.454 5.081 13.794 12.356 15.418l47.493 10.599c-6.871 32.831-26.414 61.103-54.914 78.844l-4.926 3.075c-9.441 6.217-2.387 19.836 8.189 17.262 32.25-1.576 62.205-14.819 84.982-37.432.302.126.614.229.924.339-.249 1.156-.387 2.353-.387 3.582v38.208c-.064 10.359 8.509 17.013 19.29 17.013v22.704c-16.068 4.988-27.259 20.152-27.259 37.01v8.648c.003 17.909-9.133 34.469-24.527 43.976-1.321.816-2.617 1.689-3.883 2.6-7.073-1.687-14.449-2.586-22.031-2.586h-81.54c-12.84 0-25.3 2.522-37.033 7.495-3.708 1.571-5.44 5.851-3.868 9.559 1.571 3.707 5.85 5.439 9.559 3.868 9.923-4.206 20.468-6.338 31.342-6.338h81.54c44.315 0 80.367 36.052 80.367 80.367v31.849c0 5.093-4.143 9.236-9.236 9.236h-223.802c-5.093 0-9.236-4.143-9.236-9.236v-31.849c0-21.671 8.497-41.99 23.925-57.212 2.867-2.828 2.898-7.445.069-10.312-2.829-2.866-7.446-2.898-10.312-.069-18.228 17.985-28.266 41.989-28.266 67.592v31.849c0 10.622 6.99 19.64 16.611 22.701v37.757c0 7.237 5.888 13.125 13.125 13.125h358.28c20.103 0 36.457-16.355 36.457-36.457v-107.554c.002-23.144-11.754-44.222-31.444-56.383zm16.863 131.231c-3.955.536-7.993.807-12.064.807-30.137 0-55.598-15.083-55.598-32.938 0-17.854 25.46-32.937 55.598-32.937 4.073 0 8.111.271 12.064.806zm-134.243-258.152v-43.069h14.777v43.069zm29.36-43.07h14.632v43.069h-14.632zm40.943 40.639c0 1.341-1.09 2.43-2.43 2.43h-9.297v-43.069h9.297c1.341 0 2.43 1.09 2.43 2.43zm-190.185-166.455c0-.669.544-1.214 1.214-1.214h36.774v47.224l-37.038-8.266c-.559-.124-.949-.611-.949-1.185v-36.559zm58.823 68.679.591-2.558c4.907 2.338 8.13 7.275 8.13 12.926v28.729c0 2.087.377 4.082 1.035 5.946-16.014 15.994-36.057 26.748-57.96 31.238 24.24-19.146 41.146-45.748 48.204-76.281zm34.894 97.776v-38.208c0-1.341 1.09-2.43 2.431-2.43h9.152v43.069h-9.152c-1.341 0-2.431-1.09-2.431-2.431zm-7.969 76.728c0-10.593 7.081-20.112 17.22-23.15 6.005-1.798 10.039-7.22 10.039-13.492v-23.073h57.887v23.073c0 6.271 4.034 11.693 10.039 13.492 10.139 3.037 17.22 12.557 17.22 23.15v8.648c0 5.161.588 10.218 1.715 15.098h-50.626v-58.253c0-4.027-3.264-7.291-7.292-7.291s-7.291 3.264-7.291 7.291v58.253h-50.626c1.127-4.88 1.715-9.937 1.715-15.098zm-12.813 238.437v-15.555c0-4.027-3.265-7.291-7.291-7.291-4.027 0-7.292 3.264-7.292 7.291v15.555h-14.218v-15.555c0-4.027-3.265-7.291-7.291-7.291s-7.291 3.264-7.291 7.291v15.555h-14.218v-15.555c0-4.027-3.265-7.291-7.291-7.291s-7.291 3.264-7.291 7.291v15.555h-14.221v-15.555c0-4.027-3.265-7.291-7.291-7.291s-7.291 3.264-7.291 7.291v15.555h-14.218v-15.555c0-4.027-3.265-7.291-7.291-7.291s-7.291 3.264-7.291 7.291v15.555h-14.218v-15.555c0-4.027-3.265-7.291-7.291-7.291s-7.291 3.264-7.291 7.291v15.555h-14.222v-15.555c0-4.027-3.265-7.291-7.291-7.291s-7.291 3.264-7.291 7.291v15.555h-10.116v-35.181h209.052v35.181zm159.315 0h-133.186v-36.299c9.621-3.062 16.611-12.079 16.611-22.701v-31.849c0-38.375-22.885-71.503-55.722-86.461 8.038-6.171 14.427-13.972 18.837-22.798h55.87v153.625c0 4.027 3.264 7.291 7.291 7.291s7.292-3.264 7.292-7.291v-153.626h55.87c5.399 10.807 13.763 20.079 24.487 26.702 14.179 8.757 23.064 23.446 24.347 39.854-3.915-.447-7.887-.68-11.885-.68-18.174 0-35.362 4.592-48.398 12.932-14.047 8.985-21.782 21.269-21.782 34.588s7.736 25.604 21.782 34.589c13.036 8.34 30.225 12.932 48.398 12.932 4.057 0 8.089-.24 12.064-.701v18.018c-.001 12.062-9.814 21.875-21.876 21.875z"/><path d="m72.929 407.523c0 6.165 5.015 11.18 11.18 11.18h190.748c6.165 0 11.18-5.016 11.18-11.18.711-36.698-29.804-66.977-65.785-66.739h-81.539c-36.614-.031-66.321 30.138-65.784 66.739zm198.468-3.403h-42.092v-36.134c0-3.909.447-7.776 1.316-11.557 22.504 4.648 39.661 24.102 40.776 47.691zm-132.683-48.753h77.233c-.804 4.146-1.225 8.362-1.225 12.62v36.134h-127.152c1.281-27.102 23.732-48.754 51.144-48.754z"/></g></svg>