<svg id="Capa_1" enable-background="new 0 0 512 512" height="512" viewBox="0 0 512 512" width="512" xmlns="http://www.w3.org/2000/svg"><g><g><path d="m445.91 228.501c4.143 0 7.5-3.358 7.5-7.5v-41.77c0-11.161-7.77-20.534-18.183-23.013v-25.477c0-4.142-3.357-7.5-7.5-7.5h-4.622v-27.43h2.604c2.841 0 5.437-1.605 6.708-4.146l20.2-40.4c1.056-2.111 1.056-4.596.001-6.707l-20.2-40.41c-1.271-2.541-3.868-4.146-6.709-4.146h-63.32c-4.143 0-7.5 3.358-7.5 7.5s3.357 7.5 7.5 7.5h58.684l16.451 32.91-16.45 32.9h-60.924l-8.261-21.455c-1.114-2.895-3.896-4.805-6.999-4.805h-93.509v-39.55h76.009c4.143 0 7.5-3.358 7.5-7.5s-3.357-7.5-7.5-7.5h-83.509c-4.143 0-7.5 3.358-7.5 7.5v54.55c0 4.142 3.357 7.5 7.5 7.5h37.955v10.936c0 3.023-.864 5.965-2.499 8.508l-29.948 46.586c-1.076 1.673-1.442 3.705-1.021 5.649.423 1.944 1.601 3.64 3.273 4.716l28.891 18.572c1.255.807 2.66 1.192 4.049 1.192 2.467 0 4.883-1.216 6.315-3.445l29.947-46.584c6.763-10.517 10.337-22.687 10.337-35.194v-10.936h8.56l8.261 21.455c1.114 2.895 3.896 4.805 6.999 4.805h2.598v27.43h-4.622c-4.143 0-7.5 3.358-7.5 7.5v25.478c-10.415 2.48-18.185 11.853-18.185 23.012v29.29c0 7.61-3.773 14.688-10.091 18.934l-110.13 73.948c-13.274 8.913-21.199 23.779-21.199 39.766v133.03c0 20.843 16.957 37.8 37.8 37.8h191.939c20.843 0 37.8-16.957 37.8-37.8v-218.199c0-4.142-3.357-7.5-7.5-7.5s-7.5 3.358-7.5 7.5v218.199c0 12.572-10.227 22.8-22.8 22.8h-191.939c-12.572 0-22.8-10.228-22.8-22.8v-133.03c0-10.981 5.443-21.191 14.56-27.313l110.131-73.95c10.475-7.038 16.727-18.77 16.727-31.386v-29.29c0-4.775 3.89-8.66 8.67-8.66h78.79c4.775 0 8.66 3.885 8.66 8.66v41.77c.001 4.143 3.358 7.5 7.501 7.5zm-129.729-148.012c0 9.624-2.75 18.989-7.954 27.081l-25.891 40.276-16.274-10.461 25.892-40.277c3.193-4.967 4.882-10.714 4.882-16.62v-10.936h19.346v10.937zm44.295 57.753h59.752v17.33h-59.752zm12.122-42.43h35.508v27.43h-35.508z"/><circle cx="390.352" cy="47.909" r="10.102"/><path d="m225.701 399.34c-4.143 0-7.5 3.358-7.5 7.5v45.13c0 15.273 12.426 27.7 27.7 27.7h147.479c15.279 0 27.71-12.426 27.71-27.7v-170.719c0-15.274-12.431-27.7-27.71-27.7h-42.269c-9.519 0-18.734 2.8-26.653 8.098l-93.969 62.93c-7.693 5.151-12.287 13.758-12.287 23.022v24.24c0 4.142 3.357 7.5 7.5 7.5s7.5-3.358 7.5-7.5v-24.24c0-4.249 2.105-8.196 5.633-10.559l93.967-62.928c5.439-3.64 11.77-5.563 18.309-5.563h42.269c7.008 0 12.71 5.697 12.71 12.7v170.719c0 7.002-5.702 12.7-12.71 12.7h-147.479c-7.003 0-12.7-5.697-12.7-12.7v-45.13c0-4.142-3.357-7.5-7.5-7.5z"/><path d="m335.803 331.334h-32.325c-4.143 0-7.5 3.358-7.5 7.5v26.845h-26.846c-4.143 0-7.5 3.358-7.5 7.5v32.325c0 4.142 3.357 7.5 7.5 7.5h26.846v26.846c0 4.142 3.357 7.5 7.5 7.5h32.325c4.143 0 7.5-3.358 7.5-7.5v-26.846h26.846c4.143 0 7.5-3.358 7.5-7.5v-32.325c0-4.142-3.357-7.5-7.5-7.5h-26.846v-26.845c0-4.142-3.358-7.5-7.5-7.5zm26.846 49.345v17.325h-26.846c-4.143 0-7.5 3.358-7.5 7.5v26.846h-17.325v-26.846c0-4.142-3.357-7.5-7.5-7.5h-26.846v-17.325h26.846c4.143 0 7.5-3.358 7.5-7.5v-26.845h17.325v26.845c0 4.142 3.357 7.5 7.5 7.5z"/><path d="m190.281 151.955v-3.827c3.046-1.021 5.816-2.643 8.171-4.729l3.324 1.919c1.182.682 2.471 1.006 3.743 1.006 2.592 0 5.113-1.345 6.502-3.751 2.071-3.587.842-8.174-2.745-10.245l-3.308-1.91c.311-1.528.475-3.109.475-4.727s-.164-3.199-.475-4.727l3.308-1.91c3.587-2.071 4.816-6.658 2.745-10.245s-6.66-4.816-10.245-2.745l-3.324 1.919c-2.354-2.086-5.125-3.708-8.171-4.729v-3.827c0-4.142-3.357-7.5-7.5-7.5s-7.5 3.358-7.5 7.5v3.827c-3.046 1.021-5.817 2.643-8.172 4.729l-3.324-1.919c-3.589-2.072-8.175-.842-10.245 2.746-2.071 3.587-.842 8.174 2.745 10.245l3.308 1.91c-.311 1.528-.475 3.109-.475 4.727 0 1.619.164 3.199.475 4.727l-3.308 1.91c-3.587 2.071-4.816 6.658-2.745 10.245 1.389 2.406 3.91 3.752 6.502 3.752 1.272 0 2.562-.324 3.743-1.006l3.325-1.919c2.354 2.086 5.125 3.708 8.171 4.729v3.827c0 4.142 3.357 7.5 7.5 7.5 4.143-.002 7.5-3.36 7.5-7.502zm-16.163-26.264c0-4.776 3.887-8.663 8.663-8.663s8.662 3.886 8.662 8.663c0 4.776-3.886 8.663-8.662 8.663-4.776-.001-8.663-3.887-8.663-8.663z"/><path d="m141.134 39.581c1.272 0 2.562-.324 3.743-1.006 3.587-2.071 4.816-6.658 2.745-10.245l-5.051-8.748c-2.071-3.588-6.66-4.816-10.245-2.745-2.843 1.642-4.197 4.864-3.608 7.916l-5.78 3.337c-3.267-3.187-7.316-5.572-11.829-6.844v-6.66c2.938-1.016 5.052-3.799 5.052-7.083 0-4.142-3.357-7.5-7.5-7.5h-10.103c-4.143 0-7.5 3.358-7.5 7.5 0 3.283 2.113 6.067 5.051 7.083v6.66c-4.513 1.271-8.561 3.656-11.828 6.843l-5.78-3.337c.589-3.052-.765-6.274-3.608-7.916-3.59-2.072-8.176-.843-10.245 2.745l-5.051 8.748c-2.071 3.587-.842 8.174 2.745 10.245 1.182.682 2.471 1.006 3.743 1.006 1.789 0 3.536-.655 4.908-1.843l5.77 3.331c-.558 2.189-.856 4.48-.856 6.84s.298 4.651.856 6.84l-5.763 3.328c-2.35-2.037-5.817-2.475-8.659-.833-3.587 2.071-4.816 6.658-2.745 10.245l5.051 8.748c1.39 2.406 3.91 3.751 6.502 3.751 1.272 0 2.562-.324 3.743-1.006 2.843-1.642 4.197-4.863 3.608-7.916l5.78-3.337c3.267 3.187 7.316 5.572 11.828 6.843v6.66c-2.938 1.016-5.051 3.799-5.051 7.083 0 4.142 3.357 7.5 7.5 7.5h10.102c4.143 0 7.5-3.358 7.5-7.5 0-3.284-2.113-6.067-5.052-7.083v-6.66c4.513-1.271 8.562-3.656 11.829-6.843l5.78 3.337c-.589 3.052.765 6.274 3.608 7.916 1.182.682 2.471 1.006 3.743 1.006 2.592 0 5.113-1.345 6.502-3.751l5.051-8.748c2.071-3.587.842-8.174-2.745-10.245-2.845-1.643-6.311-1.204-8.66.832l-5.761-3.326c.558-2.189.856-4.48.856-6.84s-.298-4.652-.856-6.84l5.77-3.331c1.375 1.188 3.121 1.843 4.91 1.843zm-37.525 21.031c-7.005 0-12.703-5.699-12.703-12.703 0-7.005 5.698-12.704 12.703-12.704s12.704 5.699 12.704 12.704c0 7.004-5.699 12.703-12.704 12.703z"/><path d="m178.877 14.618 30.305 10.102c.787.262 1.587.387 2.373.387 3.14 0 6.066-1.988 7.114-5.13 1.31-3.93-.813-8.177-4.743-9.487l-30.305-10.103c-3.933-1.311-8.178.814-9.487 4.744-1.31 3.93.813 8.177 4.743 9.487z"/><path d="m181.248 69.553c.786 0 1.586-.125 2.373-.387l30.305-10.102c3.93-1.31 6.053-5.557 4.743-9.487-1.311-3.93-5.556-6.053-9.487-4.744l-30.305 10.102c-3.93 1.31-6.053 5.557-4.743 9.487 1.048 3.144 3.973 5.131 7.114 5.131z"/></g></g></svg>