<?xml version="1.0" encoding="utf-8"?>
<!-- Generator: Adobe Illustrator 23.0.5, SVG Export Plug-In . SVG Version: 6.00 Build 0)  -->
<svg version="1.1" id="Слой_1" xmlns="http://www.w3.org/2000/svg" xmlns:xlink="http://www.w3.org/1999/xlink" x="0px" y="0px"
	 viewBox="0 0 240 152" style="enable-background:new 0 0 240 152;" xml:space="preserve">
<style type="text/css">
	.st0{fill:#0E0F0F;}
</style>
<path class="st0" d="M8,152h224c4.4,0,8-3.6,8-8V8c0-4.4-3.6-8-8-8H8C3.6,0,0,3.6,0,8v136C0,148.4,3.6,152,8,152z M176,16h48v120
	h-48V16z M16,16h144v120H16V16z"/>
<path class="st0" d="M192,32h16v16h-16V32z"/>
<path class="st0" d="M192,64h16v16h-16V64z"/>
<path class="st0" d="M136,32H40c-4.4,0-8,3.6-8,8v72c0,4.4,3.6,8,8,8h96c4.4,0,8-3.6,8-8V40C144,35.6,140.4,32,136,32z M128,104H48
	V48h80V104z"/>
<path class="st0" d="M200,100c-6.6,0-12,5.4-12,12s5.4,12,12,12s12-5.4,12-12S206.6,100,200,100z M200,116c-2.2,0-4-1.8-4-4
	s1.8-4,4-4s4,1.8,4,4S202.2,116,200,116z"/>
</svg>
