<svg id="Capa_1" enable-background="new 0 0 512 512" height="512" viewBox="0 0 512 512" width="512" xmlns="http://www.w3.org/2000/svg"><g><path d="m125.438 195.546h-5.092c-12.621 0-22.889 10.268-22.889 22.889v159.088c0 12.622 10.268 22.89 22.889 22.89h5.092c12.621 0 22.889-10.268 22.889-22.89v-18.225c22.21 42.585 66.786 71.729 118.047 71.729 63.239 1.151 122.539-49.039 131.415-112.153.646-4.091-2.147-7.932-6.239-8.577-4.093-.648-7.932 2.147-8.577 6.239-7.79 55.38-59.888 100.499-116.599 99.491-65.092 0-118.047-52.956-118.047-118.047s52.956-118.047 118.047-118.047c56.499-1.06 109.548 44.249 116.806 100.858.598 4.099 4.404 6.939 8.503 6.339 4.099-.598 6.937-4.405 6.339-8.503-8.112-63.196-67.207-114.856-131.649-113.694-51.261 0-95.837 29.144-118.047 71.729v-18.226c.002-12.622-10.266-22.89-22.888-22.89zm7.89 181.977c0 4.351-3.539 7.89-7.889 7.89h-5.092c-4.35 0-7.889-3.539-7.889-7.89v-159.088c0-4.35 3.539-7.889 7.889-7.889h5.092c4.35 0 7.889 3.539 7.889 7.889z"/><circle cx="269.166" cy="74.157" r="8.182"/><circle cx="307.916" cy="74.157" r="8.182"/><path d="m465.087 83.52c0-15.611-12.701-28.312-28.312-28.312h-39.976c-3.632 0-7.149-1.51-9.65-4.143l-40.145-42.254c-5.32-5.6-12.801-8.811-20.525-8.811h-251.254c-15.611 0-28.312 12.701-28.312 28.312v89.604c0 4.142 3.358 7.5 7.5 7.5h395.674v318.464h-274.077c-4.142 0-7.5 3.358-7.5 7.5s3.358 7.5 7.5 7.5h274.077v30.88c0 3.992-3.248 7.24-7.24 7.24h-373.694c-3.992 0-7.24-3.248-7.24-7.24v-30.88h78.915c4.142 0 7.5-3.358 7.5-7.5s-3.358-7.5-7.5-7.5h-78.915v-291.187c0-4.142-3.358-7.5-7.5-7.5s-7.5 3.358-7.5 7.5v337.067c0 12.263 9.977 22.24 22.24 22.24h373.694c12.263 0 22.24-9.977 22.24-22.24zm-403.174 26.896v-82.104c0-7.34 5.972-13.312 13.312-13.312h251.253c3.632 0 7.15 1.51 9.651 4.143l40.144 42.253c5.319 5.6 12.801 8.812 20.525 8.812h39.976c7.34 0 13.312 5.972 13.312 13.312v26.896z"/><path d="m120.744 31.121c-17.223 0-31.234 14.012-31.234 31.234 0 17.223 14.012 31.235 31.234 31.235s31.234-14.012 31.234-31.235-14.012-31.234-31.234-31.234zm0 47.469c-8.952 0-16.234-7.283-16.234-16.235s7.283-16.234 16.234-16.234 16.234 7.283 16.234 16.234c0 8.952-7.283 16.235-16.234 16.235z"/><path d="m202.584 31.121c-17.223 0-31.234 14.012-31.234 31.234 0 17.223 14.012 31.235 31.234 31.235 17.223 0 31.235-14.012 31.235-31.235s-14.012-31.234-31.235-31.234zm0 47.469c-8.952 0-16.234-7.283-16.234-16.235s7.283-16.234 16.234-16.234c8.952 0 16.235 7.283 16.235 16.234 0 8.952-7.283 16.235-16.235 16.235z"/><path d="m269.166 49.603h38.75c4.142 0 7.5-3.358 7.5-7.5s-3.358-7.5-7.5-7.5h-38.75c-4.142 0-7.5 3.358-7.5 7.5s3.358 7.5 7.5 7.5z"/><path d="m344.501 251.171c-15.732-26.631-45.984-44.35-78.121-44.251-50.21 0-91.06 40.85-91.06 91.06-.534 50.253 42.399 91.611 91.06 91.06 50.205 0 91.05-40.85 91.05-91.06.128-14.927-4.298-32.681-12.929-46.809zm-94.554 121.085c-1.157-.471-3.549-.241-13.957-4.54l100.122-100.122c.43 1.474 1.782 2.731 4.536 13.961zm-47.842-33.607c-.636-2.065-5.131-5.089-10.048-24.489l90.504-90.504c1.072.842 6.563-.409 24.481 10.056zm60.893-116.643-72.592 72.592c1.727-39.253 33.339-70.865 72.592-72.592zm-51.585 128.547 107.533-107.533c3.522 3.362 6.692 7.051 9.506 11.021l-106.014 106.015c-3.967-2.809-7.657-5.979-11.025-9.503zm58.042 23.409 72.897-72.897c-1.585 39.491-33.409 71.317-72.897 72.897z"/></g></svg>