<?xml version="1.0" encoding="utf-8"?>
<!-- Generator: Adobe Illustrator 23.0.5, SVG Export Plug-In . SVG Version: 6.00 Build 0)  -->
<svg version="1.1" id="Слой_1" xmlns="http://www.w3.org/2000/svg" xmlns:xlink="http://www.w3.org/1999/xlink" x="0px" y="0px"
	 viewBox="0 0 224 480" style="enable-background:new 0 0 224 480;" xml:space="preserve">
<style type="text/css">
	.st0{fill:#0E0F0F;}
</style>
<path class="st0" d="M216,0H8C3.6,0,0,3.6,0,8v448c0,4.4,3.6,8,8,8h8v16h16v-16h160v16h16v-16h8c4.4,0,8-3.6,8-8V8
	C224,3.6,220.4,0,216,0z M208,448H16V168h192V448z M208,152H16V16h192V152z"/>
<path class="st0" d="M40,56h16v80H40V56z"/>
<path class="st0" d="M40,184h16v112H40V184z"/>
</svg>
