<svg id="Capa_1" enable-background="new 0 0 512 512" height="512" viewBox="0 0 512 512" width="512" xmlns="http://www.w3.org/2000/svg"><g><circle cx="112.693" cy="198.248" r="7.5"/><circle cx="187.649" cy="198.248" r="7.5"/><circle cx="262.605" cy="198.248" r="7.5"/><circle cx="337.561" cy="198.248" r="7.5"/><circle cx="412.516" cy="198.248" r="7.5"/><circle cx="112.693" cy="236.583" r="7.5"/><circle cx="187.649" cy="236.583" r="7.5"/><circle cx="262.605" cy="236.583" r="7.5"/><circle cx="337.561" cy="236.583" r="7.5"/><circle cx="412.516" cy="236.583" r="7.5"/><path d="m502.21 195.082c-4.85-4.681-13.725-10.262-28.468-10.262-.617 0-1.222.029-1.828.056-2.494-20.401-19.912-36.258-40.976-36.258h-238.928c-4.142 0-7.5 3.358-7.5 7.5s3.358 7.5 7.5 7.5h238.928c14.132 0 25.69 11.207 26.267 25.2-5.902 3.154-10.916 8.135-14.84 14.857-4.399 7.536-6.725 16.363-6.725 25.526v37.399h-359.28v-37.399c0-9.083-2.286-17.842-6.611-25.331-3.941-6.822-8.993-11.87-14.952-15.054.578-13.991 12.136-25.197 26.266-25.197h80.948c4.142 0 7.5-3.358 7.5-7.5s-3.358-7.5-7.5-7.5h-80.949c-21.064 0-38.483 15.857-40.976 36.258-.606-.028-1.211-.057-1.828-.057-14.743 0-23.618 5.581-28.468 10.262-6.313 6.095-9.79 14.354-9.79 23.256 0 8.49 3.154 16.48 8.88 22.495 4.706 4.944 10.72 8.155 17.657 9.478v99.57c0 7.444 6.056 13.5 13.5 13.5h267.523c4.142 0 7.5-3.358 7.5-7.5s-3.358-7.5-7.5-7.5h-231.2v-19.816h359.281v19.816h-98.08c-4.142 0-7.5 3.358-7.5 7.5s3.358 7.5 7.5 7.5h134.403c7.444 0 13.5-6.056 13.5-13.5v-99.57c6.938-1.322 12.952-4.534 17.657-9.478 5.726-6.016 8.88-14.005 8.88-22.495-.001-8.902-3.478-17.161-9.791-23.256zm-191.33 118.483h-109.76v-31.964h109.76zm-276.843-77.566c-13.08 0-19.037-9.155-19.037-17.661 0-4.795 1.85-9.222 5.208-12.464 4.103-3.96 10.344-6.054 18.05-6.054 7.959 0 14.011 3.779 18.501 11.552 3.01 5.211 4.601 11.376 4.601 17.829v119.18h-19.823v-104.882c0-4.142-3.358-7.5-7.5-7.5zm42.323 45.602h109.76v31.964h-109.76zm249.52 31.964v-31.964h109.76v31.964zm152.083-77.566c-4.142 0-7.5 3.358-7.5 7.5v104.882h-19.823v-119.179c0-6.508 1.618-12.72 4.679-17.964 4.484-7.683 10.51-11.417 18.422-11.417 7.706 0 13.947 2.093 18.05 6.054 3.358 3.242 5.208 7.669 5.208 12.464.001 8.505-5.956 17.66-19.036 17.66z"/></g></svg>