<?xml version="1.0" encoding="iso-8859-1"?>
<!-- Generator: Adobe Illustrator 19.0.0, SVG Export Plug-In . SVG Version: 6.00 Build 0)  -->
<svg version="1.1" id="Layer_1" xmlns="http://www.w3.org/2000/svg" xmlns:xlink="http://www.w3.org/1999/xlink" x="0px" y="0px"
	 viewBox="0 0 511.999 511.999" style="enable-background:new 0 0 511.999 511.999;" xml:space="preserve">
<g>
	<g>
		<g>
			<path d="M433.422,403.666h-65.297c-4.454,0-8.062,3.609-8.062,8.062c0,4.454,3.609,8.062,8.062,8.062h65.297
				c4.454,0,8.062-3.609,8.062-8.062C441.484,407.275,437.876,403.666,433.422,403.666z"/>
			<path d="M472.113,136.197h-33.749v-25.205c10.863-1.822,19.175-11.266,19.175-22.638c0-12.671-10.309-22.98-22.98-22.98h-65.635
				c-2.811,0-5.495,0.532-7.987,1.461c-11.91-8.255-24.602-15.4-37.807-21.252c-4.069-1.805-8.833,0.032-10.638,4.103
				c-1.805,4.071,0.032,8.834,4.103,10.638c11.081,4.91,21.778,10.794,31.9,17.536c-0.215,0.418-0.416,0.844-0.606,1.275
				c-0.114,0.26-0.217,0.525-0.322,0.79c-0.14,0.354-0.27,0.712-0.393,1.072c-0.106,0.314-0.21,0.629-0.302,0.948
				c-0.135,0.461-0.255,0.928-0.36,1.397c-0.049,0.221-0.099,0.442-0.142,0.665c-0.117,0.601-0.211,1.208-0.278,1.82
				c-0.016,0.151-0.028,0.301-0.041,0.453c-0.062,0.687-0.105,1.377-0.105,2.073c0,0.755,0.042,1.499,0.113,2.235
				c0.024,0.244,0.068,0.482,0.099,0.722c0.063,0.488,0.129,0.975,0.222,1.453c0.055,0.281,0.127,0.555,0.192,0.832
				c0.101,0.429,0.204,0.856,0.329,1.275c0.085,0.286,0.182,0.565,0.277,0.847c0.135,0.399,0.277,0.794,0.434,1.184
				c0.113,0.279,0.231,0.554,0.355,0.828c0.17,0.378,0.349,0.75,0.54,1.118c0.137,0.264,0.275,0.527,0.421,0.786
				c0.206,0.363,0.425,0.717,0.649,1.068c0.156,0.244,0.309,0.488,0.474,0.726c0.248,0.357,0.513,0.7,0.78,1.042
				c0.166,0.211,0.324,0.428,0.496,0.633c0.315,0.375,0.649,0.732,0.988,1.086c0.146,0.153,0.282,0.315,0.432,0.463
				c0.497,0.493,1.014,0.966,1.554,1.413c0.081,0.067,0.168,0.124,0.249,0.189c0.464,0.374,0.941,0.735,1.434,1.073
				c0.202,0.138,0.414,0.26,0.62,0.392c0.387,0.247,0.775,0.491,1.177,0.716c0.245,0.136,0.498,0.258,0.748,0.386
				c0.381,0.195,0.763,0.384,1.156,0.558c0.271,0.119,0.546,0.228,0.822,0.338c0.388,0.154,0.779,0.299,1.177,0.432
				c0.289,0.097,0.579,0.186,0.874,0.271c0.402,0.116,0.807,0.219,1.218,0.314c0.3,0.069,0.6,0.137,0.903,0.193
				c0.149,0.028,0.294,0.07,0.443,0.095v25.178h-33.749c-6.681,0-12.979,1.66-18.517,4.575
				c-24.21-17.464-52.719-26.669-82.813-26.669c-78.242,0-141.896,63.654-141.896,141.896s63.654,141.896,141.896,141.896
				c27.8,0,54.874-8.182,77.887-23.295l-3.949,60.201c-0.669,2.985-2.444,12.352-1.024,22.362
				c-23.332,8.465-47.828,12.754-72.913,12.754c-117.955,0-213.919-95.964-213.919-213.919S112.089,42.081,230.044,42.081
				c21.522,0,42.761,3.187,63.128,9.473c4.261,1.308,8.769-1.073,10.082-5.326c1.313-4.255-1.072-8.768-5.326-10.082
				c-21.909-6.76-44.748-10.189-67.882-10.189c-61.446,0-119.215,23.929-162.665,67.378C23.929,136.784,0,194.553,0,255.999
				c0,61.447,23.929,119.216,67.378,162.665c43.45,43.449,101.219,67.378,162.665,67.378c26.915,0,53.2-4.608,78.253-13.679
				c0.502,0.784,1.035,1.554,1.62,2.3c4.066,5.191,11.906,11.379,26.176,11.379h131.303c14.268,0,22.109-6.188,26.175-11.379
				c10.917-13.941,7.007-35.088,5.935-39.864l-5.755-87.728c0-0.002,0-0.004,0-0.006l-7.041-107.347
				c14.038-5.489,23.773-18.325,25.13-33.52c0.108-1.186,0.16-2.394,0.16-3.593v-26.522
				C512,154.091,494.106,136.197,472.113,136.197z M362.07,88.354c0-0.257,0.017-0.512,0.045-0.762
				c0.011-0.096,0.029-0.189,0.043-0.284c0.023-0.151,0.048-0.301,0.081-0.449c0.026-0.114,0.056-0.227,0.087-0.339
				c0.034-0.125,0.072-0.247,0.113-0.37c0.04-0.116,0.081-0.23,0.126-0.343c0.048-0.121,0.103-0.24,0.159-0.358
				c0.047-0.101,0.094-0.203,0.145-0.302c0.11-0.205,0.227-0.407,0.358-0.601c0.003-0.004,0.005-0.01,0.009-0.014
				c0.148-0.218,0.312-0.429,0.486-0.631c0.009-0.01,0.017-0.019,0.026-0.029c0.353-0.402,0.755-0.769,1.205-1.092
				c0.026-0.018,0.048-0.042,0.074-0.06c1.107-0.768,2.449-1.221,3.896-1.221h65.639c3.781,0,6.855,3.074,6.855,6.855
				c0,3.781-3.074,6.855-6.855,6.855h-4.258h-57.118h-4.259C365.144,95.209,362.07,92.135,362.07,88.354z M422.24,111.334v24.863
				h-40.994v-24.863H422.24z M309.736,347.066c0,0.001,0,0.002,0,0.003l-0.432,6.582c-22.353,18.156-50.367,28.119-79.261,28.119
				c-69.351,0-125.771-56.421-125.771-125.771s56.421-125.771,125.771-125.771c25.265,0,49.271,7.315,69.969,21.238
				c-0.094,0.119-0.181,0.244-0.273,0.364c-0.202,0.262-0.4,0.527-0.596,0.794c-0.102,0.141-0.202,0.283-0.302,0.425
				c-3.661,5.156-6.126,11.21-6.996,17.766c-0.024,0.178-0.046,0.357-0.068,0.535c-0.044,0.369-0.085,0.739-0.118,1.11
				c-0.029,0.317-0.052,0.636-0.073,0.955c-0.018,0.271-0.04,0.542-0.052,0.815c-0.029,0.617-0.047,1.234-0.047,1.854v26.522
				c0,1.185,0.054,2.391,0.159,3.588c1.104,12.349,7.735,23.138,17.714,29.694c2.303,1.512,4.784,2.8,7.416,3.829L309.736,347.066z
				 M480.855,464.747c-2.739,3.48-7.142,5.171-13.46,5.171H336.091c-6.319,0-10.722-1.691-13.46-5.171
				c-1.122-1.427-1.958-3.116-2.572-4.946c-0.012-0.038-0.019-0.076-0.031-0.114c-0.029-0.087-0.053-0.176-0.081-0.263
				c-0.085-0.27-0.167-0.543-0.243-0.818c-0.101-0.365-0.193-0.733-0.278-1.104c-0.06-0.261-0.118-0.522-0.171-0.787
				c-0.064-0.321-0.124-0.644-0.178-0.969c-0.057-0.344-0.11-0.689-0.156-1.035c-0.035-0.26-0.068-0.519-0.097-0.779
				c-0.045-0.409-0.084-0.817-0.116-1.226c-0.019-0.248-0.037-0.496-0.052-0.743c-0.023-0.379-0.04-0.758-0.053-1.136
				c-0.011-0.336-0.018-0.671-0.021-1.002c-0.002-0.203-0.002-0.404-0.002-0.605c0.013-5.244,0.887-9.714,1.155-10.958
				c0.02-0.091,0.042-0.198,0.062-0.283c0.008-0.034,0.013-0.057,0.014-0.061c0.113-0.461,0.186-0.93,0.217-1.403l5.141-78.36
				c0-0.001,0-0.003,0-0.004l0.163-2.496h152.823l5.304,80.861c0.029,0.46,0.104,0.937,0.213,1.386
				C484.869,442.853,486.695,457.328,480.855,464.747z M495.779,204.758c-0.852,9.547-7.61,17.82-16.808,20.587
				c-0.088,0.026-0.176,0.055-0.264,0.084c-0.094,0.023-0.185,0.046-0.271,0.07c-0.409,0.112-0.751,0.2-1.061,0.274h-19.997
				c-4.454,0-8.062,3.609-8.062,8.062c0,4.454,3.609,8.062,8.062,8.062h13.315l6.405,97.633H326.39l0.46-7.008l5.945-90.625h99.142
				c4.454,0,8.062-3.609,8.062-8.062c0-4.454-3.609-8.062-8.062-8.062H326.111c-0.306-0.073-0.644-0.16-1.039-0.269
				c-0.096-0.026-0.191-0.052-0.29-0.075c-0.087-0.028-0.174-0.057-0.261-0.083c-2.877-0.865-5.514-2.268-7.806-4.078
				c-5.044-3.984-8.421-9.945-9.007-16.505c-0.065-0.72-0.097-1.446-0.097-2.156v-26.522c0-0.44,0.015-0.876,0.038-1.311
				c0.011-0.19,0.028-0.38,0.043-0.569c0.018-0.231,0.035-0.462,0.06-0.692c0.028-0.26,0.062-0.519,0.099-0.777
				c0.019-0.138,0.039-0.275,0.06-0.413c0.052-0.321,0.107-0.642,0.172-0.96c0.009-0.043,0.017-0.086,0.027-0.129
				c2.246-10.785,11.821-18.913,23.263-18.913h41.811h57.118h41.811c13.103,0,23.762,10.659,23.762,23.762v26.524h0.001
				C495.875,203.325,495.843,204.048,495.779,204.758z"/>
			<path d="M433.422,375.97h-65.297c-4.454,0-8.062,3.609-8.062,8.062c0,4.453,3.609,8.062,8.062,8.062h65.297
				c4.454,0,8.062-3.61,8.062-8.062C441.484,379.578,437.876,375.97,433.422,375.97z"/>
			<path d="M400.773,254.328c-20.345,0-36.895,16.55-36.895,36.895c0,20.345,16.55,36.895,36.895,36.895s36.896-16.55,36.896-36.895
				S421.118,254.328,400.773,254.328z M400.773,311.994c-11.453,0-20.771-9.318-20.771-20.771s9.318-20.771,20.771-20.771
				c11.454,0,20.772,9.318,20.772,20.771S412.228,311.994,400.773,311.994z"/>
		</g>
	</g>
</g>
<g>
</g>
<g>
</g>
<g>
</g>
<g>
</g>
<g>
</g>
<g>
</g>
<g>
</g>
<g>
</g>
<g>
</g>
<g>
</g>
<g>
</g>
<g>
</g>
<g>
</g>
<g>
</g>
<g>
</g>
</svg>
